<svg xmlns="http://www.w3.org/2000/svg" viewBox="0 0 124 124"><path d="M107.7 0H16.4C12 0 7.9 1.7 4.8 4.8 1.7 7.9 0 12 0 16.3v91.3c0 4.3 1.7 8.5 4.8 11.6 3.1 3.1 7.2 4.8 11.6 4.8h91.3c4.3 0 8.5-1.7 11.6-4.8 3.1-3.1 4.8-7.2 4.8-11.6V16.3c0-4.3-1.7-8.5-4.8-11.6-3.2-3-7.3-4.7-11.6-4.7zm12.5 16.3V46H51.4V3.8h56.3c3.3 0 6.5 1.3 8.9 3.7 2.3 2.3 3.6 5.5 3.6 8.8zM16.4 3.8h3.2v42.3H3.8V16.3c0-3.3 1.3-6.5 3.7-8.9 2.3-2.3 5.5-3.6 8.9-3.6zM3.8 107.6V77.9h15.8v42.3h-3.2c-3.3 0-6.5-1.3-8.9-3.7-2.4-2.3-3.7-5.5-3.7-8.9zm103.9 12.6H51.4V77.9h68.8v29.7c0 3.3-1.3 6.5-3.7 8.9-2.3 2.4-5.5 3.7-8.8 3.7z" fill="#fec156"/></svg>