<svg xmlns="http://www.w3.org/2000/svg" viewBox="0 0 512 512"><path d="M502.4 149.8l-39.1 29.6c4 23.4 4 47.1 0 70.1l39.1 29.6c9.9 7.3 12.4 20.4 6.2 31l-43.8 75.6c-6.2 10.6-19 14.6-29.9 9.9l-45.3-19.3c-17.9 15-38.3 27-60.6 35l-5.8 48.6c-1.5 12-11.7 20.8-23.7 20.8h-87.3c-12 0-22.3-8.8-23.7-20.8l-5.5-48.2c-22.3-8.4-42.7-20.1-60.6-35l-45.3 19c-11 4.7-23.7.4-29.9-9.9-14.6-25.3-29.2-50.5-43.8-75.7-6.2-10.6-3.3-23.7 6.2-31l39.1-29.6c-4-23.4-4-47.1 0-70.1L9.6 149.8c-9.9-7.3-12.4-20.4-6.2-31l43.8-75.6c6.2-10.6 19-14.6 29.9-9.9l53.7 23v158.4h.4c0 38 17.2 71.9 43.8 94.9-1.1-.7-2.2-1.1-3.3-1.1-3.3 0-6.2 2.9-6.2 6.2 0 1.8 1.1 3.7 2.6 4.7.4.4.4 1.1 1.1 1.5 14.6 15.3 39.4 47.5 87.3 47.5 34.3 0 58.4-17.9 73.7-32.9 9.9 8.4 24.1 9.1 30.3 8.8 5.1 0 6.2-8 1.8-9.9-19.3-8-19.7-29.2-19.7-29.9 23.7-22.6 38.3-54.4 38.3-89.8h.4V56.4l53.7-23c11-4.7 23.7-.4 29.9 9.9l43.8 75.6c6.1 10.5 3.2 23.6-6.3 30.9M317 281.6c-14.6 12.8-34 19-58 19-23.4 0-43.8-6.9-61.3-20.8s-25.9-33.6-25.2-58.8l.4-1.1c.4-9.5 8-16.8 17.5-16.8s17.2 7.7 17.5 16.8h.4c0 17.9 4.7 31.4 14.2 39.8 9.5 8.8 21.9 12.8 36.9 12.8 13.5 0 24.5-3.7 32.1-11.3 7.7-7.7 11.7-17.9 11.7-30.7 0-9.9-2.2-18.3-6.6-25.2-5.1 1.1-10.6.4-16.1-1.8l4.4-10.6-6.2 14.6c-1.1 2.6-4.4 4-6.9 2.9-2.6-1.1-4-4.4-2.9-6.9l4.7-11.3-16.4-6.9c-2.6-1.1-4-4.4-2.9-6.9 1.1-2.6 4.4-4 6.9-2.9l16.4 6.9 6.9-17.2-16.4-6.9c-2.6-1.1-4-4.4-2.9-6.9 1.1-2.6 4.4-4 6.9-2.9l16.4 6.9 5.1-12c1.1-2.6 4.4-4 6.9-2.9 2.6 1.1 4 4.4 2.9 6.9l-6.2 15.3 4.7-11.3c11.3 4.7 17.9 15.7 17.5 27.4l1.5 1.5c12.4 12.8 18.6 29.6 18.6 50-.6 21.8-7.9 38.6-22.5 51.3zm20.4-171.9c-1.1 8.8-8.4 15.7-17.5 15.7-9.9 0-17.9-8-17.9-17.9 0-.7 0-1.5.4-2.2-.7-13.1-4.4-24.1-11.7-32.9-8-9.5-19-14.2-33.2-14.2-13.5 0-24.1 4-31.4 12-7.3 8-11 18.3-11 30.7 0 9.9 2.9 18.3 9.1 25.6 5.8-1.8 12.4-1.5 18.6 1.1l1.8-4c1.1-2.6 4.4-4 6.9-2.9 2.6 1.1 4 4.4 2.9 6.9l-24.8 60.6c-1.1 2.6-4.4 4-6.9 2.9s-4-4.4-2.9-6.9l1.8-4c-10.6-4.4-17.2-14.6-17.5-25.2-1.8-1.5-3.7-2.9-5.5-4.7-13.1-12-20.1-28.1-20.1-48.2 0-20.8 7.3-37.6 22.3-50.7 15-13.1 34-19.7 57-19.7 24.1 0 43.8 7.7 58.4 23 15 15.3 21.9 34 21.5 55.5l-.3-.5z"/></svg>