<svg xmlns="http://www.w3.org/2000/svg" viewBox="0 0 512 512"><path d="M498.4 186l-38.5 29c3.8 22.8 3.8 46.3 0 69.1l38.6 29c9.6 7.2 12.2 20.1 6.2 30.5-14.4 24.8-28.7 49.6-43 74.5-6 10.3-18.5 14.5-29.5 9.8l-44.4-19c-17.7 14.7-37.9 26.4-59.8 34.6l-5.8 47.9c-1.4 11.9-11.3 20.6-23.3 20.6h-86c-11.9 0-21.8-8.8-23.3-20.6l-5.8-47.9c-21.9-8.1-42.1-19.9-59.8-34.6l-44.4 19c-11 4.7-23.5.5-29.5-9.8-14.4-24.8-28.7-49.6-43-74.5-6-10.3-3.3-23.3 6.2-30.5l38.6-29c-3.8-22.8-3.8-46.3 0-69.1l-38.6-29c-9.6-7.2-12.2-20.1-6.2-30.5 14.4-24.8 28.7-49.6 43-74.5 6-10.3 18.5-14.5 29.5-9.8l53 22.7v155.9h.3c.1 67.8 55.1 122.8 123 122.8s122.8-54.9 123-122.8h.3V93.9l53-22.7c11-4.7 23.5-.5 29.5 9.8 14.4 24.8 28.7 49.7 43 74.5 5.9 10.4 3.3 23.4-6.3 30.5z" fill="#1f1e24"/><path d="M358.5 377.6c-6.2.1-20.2-.4-29.8-8.7-15.2 14.7-39 32.4-72.8 32.4-46.9 0-71.6-31.7-85.9-46.8-.4-.4-.6-.8-.8-1.2-1.5-1.1-2.4-2.9-2.4-4.9 0-3.4 2.8-6.1 6.1-6.1 1.9 0 3.5.8 4.6 2.1 6 4.7 37.7 28 78.5 28 45.4 0 79.5-28.9 79.5-28.9l.1.1 5.7-5.2s-.3 21.3 19.2 29.5c3.9 1.8 3.2 9.5-2 9.7zM315.8 316c-14.5 12.4-33.6 18.7-57.2 18.7-23 0-43.1-6.8-60.3-20.5s-25.5-32.9-24.9-57.7l.3-1c.2-9.4 7.8-16.9 17.2-16.9s16.9 7.4 17.2 16.7h.3c0 17.7 4.6 30.7 13.9 39.2 9.3 8.5 21.4 12.7 36.4 12.7 13.5 0 24-3.8 31.6-11.3s11.4-17.6 11.4-30.2c0-9.6-2.2-17.9-6.5-24.8-5.1 1-10.6.5-15.8-1.6l4.3-10.4-6 14.4c-1.1 2.7-4.2 4-6.9 2.8-2.7-1.1-4-4.2-2.8-6.9l4.6-11.2-16.3-6.7c-2.7-1.1-4-4.2-2.8-6.9 1.1-2.7 4.2-4 6.9-2.8l16.3 6.8 7-16.9-16.3-6.7c-2.7-1.1-4-4.2-2.8-6.9 1.1-2.7 4.2-4 6.9-2.8l16.3 6.7 4.9-12.1c1.1-2.7 4.2-4 6.9-2.8 2.7 1.1 4 4.2 2.8 6.9l-6.3 15.2 4.6-11.2c11.1 4.6 17.6 15.6 17.1 27 .4.4 1 .9 1.4 1.3 12.2 12.6 18.4 29 18.4 49.2 0 21.5-7.2 38.3-21.8 50.7zm20.4-169.1c-1.1 8.6-8.5 15.3-17.4 15.3-9.6 0-17.4-7.8-17.4-17.4 0-.8.1-1.5.1-2.2-.7-13.1-4.5-23.8-11.5-32.3-7.8-9.4-18.7-14.2-32.7-14.2-13.3 0-23.7 3.9-30.9 11.8-7.2 7.9-10.9 17.9-10.9 30.1 0 9.7 3.1 18.1 9.2 25.1 5.8-1.7 12.3-1.5 18.3 1l1.7-4.1c1.1-2.7 4.2-4 6.9-2.8 2.7 1.1 4 4.2 2.8 6.9l-24.6 59.5c-1.1 2.7-4.2 4-6.9 2.8-2.7-1.1-4-4.2-2.8-6.9l1.7-4.1c-10.4-4.3-16.8-14.2-17.1-24.8-1.9-1.5-3.7-3-5.4-4.6-13.1-12-19.7-27.8-19.7-47.6 0-20.3 7.3-37 21.9-50.1s33.3-19.6 56.2-19.6c23.8 0 43.1 7.6 57.6 22.6 14.6 15.1 21.6 33.3 21.2 54.6l-.3 1z" fill="#fec156"/><path d="M396.9 70.9l-5.3-5.5-20.8 20.1-4.6-4.8L387 60.6l-5.3-5.5 3.8-3.7 15.3 15.8-3.9 3.7zm-43.8-1.8l2.7-7.1-7.4-5.2-5.7 4.9-5.5-3.9 27.7-22.2 5.6 4-12 33.4-5.4-3.9zm9-23.9l-9.5 8.1 5.1 3.7 4.5-11.7-.1-.1zm-38.3 5.9l-.5-24.2h-.1l-9 19.9-6.1-2.8 14-31.2 6.1 2.8.6 24.2h.1l9-19.9 6.1 2.8-14.1 31.2-6.1-2.8zm-30.1-18.9l-8.8-2-3.4 6.7-6.5-1.5 17-31.2 6.7 1.5 1.7 35.5-6.5-1.5-.2-7.5zm-.4-18h-.1l-5.7 11.1 6.2 1.4-.4-12.5zm-35.3.5c3.3 1 5.7 2.4 7.4 4 1.7 1.7 2.5 3.9 2.6 6.8.1 2.9-.9 5.3-2.8 7-1.9 1.7-4.6 2.6-7.8 2.6-3.3.1-6.1-.8-8.5-2.7-2.4-1.9-3.6-4.6-3.6-8.1l.1-.1 6.5-.1c.1 2.1.5 3.7 1.4 4.6.9.9 2.2 1.3 4 1.3 1.4 0 2.4-.4 3.1-1.2.6-.8 1-1.8 1-3.1s-.4-2.4-1.1-3.1-1.9-1.5-3.7-2.2c-3.6-1.2-6.3-2.6-8.1-4.1-1.8-1.5-2.7-3.7-2.8-6.5-.1-2.8 1-5.1 3-6.9 2.1-1.8 4.7-2.7 7.9-2.8 3.3-.1 5.9.9 7.9 2.8s3.1 4.4 3.1 7.4l-.1.1-6.5.1c0-1.5-.4-2.8-1.2-3.8-.8-1-1.9-1.4-3.3-1.4-1.3 0-2.4.4-3.1 1.3-.7.8-1.1 1.9-1.1 3.1 0 1.2.4 2.1 1.3 2.8.9.6 2.3 1.4 4.4 2.2zm-31.7 23.6L215.2 41l-7.8-33.3 9.8-2.3c3.4-.8 6.3-.6 8.6.4 2.3 1.1 3.8 3.1 4.5 6.2.4 1.6.3 3.1-.1 4.5s-1.3 2.6-2.5 3.5c1.9 0 3.3.6 4.5 1.8 1.2 1.2 1.9 2.7 2.4 4.6.8 3.2.4 5.8-1 7.9-1.4 1.8-3.9 3.2-7.3 4zM224 14c-.4-1.5-1-2.6-1.9-3.1-.9-.5-2.1-.6-3.6-.3l-3.3.8 2.1 8.8 3.6-.8c1.3-.3 2.2-1 2.8-1.9.4-1 .6-2.1.3-3.5zm4.2 13.6c-.4-1.6-1-2.8-1.7-3.5s-1.8-.9-3.1-.6l-5 1.2 2.2 9.5 4.6-1.1c1.3-.3 2.3-1 2.8-1.9.4-.9.5-2.1.2-3.6zm-26.9 18.5l-4.7-5.9-8.2 3.7 1.3 7.4-6.2 2.8-5.2-35.1 6.3-2.8 22.7 27.3-6 2.6zm-15.8-20l-.1.1 2.1 12.3 5.8-2.6-7.8-9.8zm-16.7 37.4L153 39.4l-6.4 4.2-2.9-4.5L162.2 27l2.9 4.5-6.5 4.2 15.8 24.2-5.6 3.6zm-16.9 9.7c-.1 2.9-1.4 5.6-3.8 8-2.4 2.4-5.1 3.7-8.1 3.8-2.9.1-5.6-1.2-8.2-3.7l-16.4-16.5 4.7-4.7 16.3 16.5c1.5 1.5 2.8 2.2 4.2 2.4 1.3.1 2.5-.4 3.7-1.5 1.2-1.2 1.7-2.3 1.6-3.6s-.8-2.7-2.4-4.2l-16.3-16.5 4.7-4.7L148.2 65c2.6 2.6 3.8 5.3 3.7 8.2z" fill="#1f1e24"/></svg>