<svg xmlns="http://www.w3.org/2000/svg" viewBox="0 0 124 124"><path d="M123.9 104.4v12c0 2-1.6 3.7-3.7 3.7H2c-1.1 0-1.9-.9-1.9-1.9 0-1.1.9-1.9 1.9-1.9h24.2v-11.5c-2.9 2.7-6.7 4.3-10.6 4.3-8.5 0-15.5-7-15.5-15.5 0-1.1.9-1.9 1.9-1.9s1.9.9 1.9 1.9c0 4.6 2.7 8.8 7 10.6 5.9 2.6 12.8-.1 15.3-6V67.8c0-1.1.9-1.9 1.9-1.9s1.9.9 1.9 1.9v27.9c.2.3.3.5.4.8 1.5 5 6 8.5 11.2 8.5 6.4 0 11.6-5.2 11.6-11.6 0-1.1.9-1.9 1.9-1.9 1.1 0 1.9.9 1.9 1.9 0 4.4-1.9 8.7-5.2 11.6-6.4 5.7-16.3 5-21.9-1.4v12.5h30v-11.8c0-2 1.6-3.7 3.7-3.7h2.1V50.4h-3.5v1c0 1.1-.9 1.9-1.9 1.9-1.1 0-1.9-.9-1.9-1.9v-1c-.9-.2-1.5-.8-1.6-1.6-.1-1.1.6-2 1.6-2.2v-1c0-1.1.9-1.9 1.9-1.9 1.1 0 1.9.9 1.9 1.9v1h3.5V31.7c0-3.6 2.9-6.5 6.6-6.5h.5c3.6 0 6.5 2.9 6.5 6.5v10h1.9c2.1 0 3.9 1.7 3.9 3.9v1h12.5v-4c-2.3-.6-3.9-2.7-3.8-5.1v-1.3c0-2.9 2-5.2 4.5-5.2h10.3c2.5 0 4.5 2.3 4.5 5.2v1.3c.1 2.4-1.5 4.5-3.8 5.1v4h4.2v-1c0-1.1.9-1.9 1.9-1.9 1.1 0 1.9.9 1.9 1.9v1h.4c1.1 0 1.9.9 1.9 1.9s-.9 1.9-1.9 1.9h-.4v1c0 1.1-.9 1.9-1.9 1.9-1.1 0-1.9-.9-1.9-1.9v-1h-4.2v3.7c6.3 1.9 11.3 6.9 13.3 13.2 3.3 10.5-2.7 21.8-13.3 25-10.3 3.4-21.6-2.5-24.9-13.2-3.3-10.5 2.6-21.8 13.3-25v-3.7H85.2v1c0 2.1-1.7 3.9-3.9 3.9h-1.9v45.4h40.8c2.1 0 3.7 1.6 3.7 3.7zm-14.5-68.1c0-.9-.5-1.4-.7-1.4H98.5c-.2 0-.7.6-.7 1.4v1.3c0 .9.5 1.4.7 1.4h10.3c.2 0 .7-.6.7-1.4v-1.3zm-7.8 6.4v3.9h4.1v-3.9h-4.1zM87.4 73.6c0 9 7.2 16.2 16.2 16.2s16.3-7.3 16.3-16.2c0-7.6-5.2-14.3-12.7-16.1-1-.2-1.5-1-1.5-1.9v-5.1h-4.1v5c0 1-.7 1.7-1.5 1.9-7.5 1.8-12.7 8.6-12.7 16.2zM75.5 31.7c-.1-1.5-1.3-2.6-2.7-2.6h-.5c-1.5 0-2.6 1.2-2.6 2.6v14.8h5.8V31.7zm0 18.7h-5.8v50.3h5.8V50.4zm16.7 58H63.9v3.9h28.3c1.1 0 1.9-.9 1.9-1.9 0-1.1-.8-2-1.9-2zm10.4-41.2c.9-.6 2.1-.4 2.7.5 1.2 1.6 4.9 6.1 8.5 7.1h.1c1 .3 1.5 1.5 1.2 2.4-1.9 5.5-6.4 9-11.5 9-5 0-9.7-3.7-11.5-9.1-.3-1 .2-2 1.2-2.4 3.3-1.3 7.5-3.4 8.7-6.6.1-.3.3-.7.6-.9zm7.8-40c-2.7 0-4.8-2.2-4.8-4.8 0-2.7 2.2-4.8 4.8-4.8 2.7 0 4.8 2.2 4.8 4.8 0 2.6-2.1 4.8-4.8 4.8zm-2.9-13.6c-2.7 0-4.8-2.2-4.8-4.8 0-2.7 2.2-4.8 4.8-4.8 2.7 0 4.8 2.2 4.8 4.8 0 2.7-2.2 4.8-4.8 4.8zm-11.6 9.7c-3.2 0-5.8-2.6-5.8-5.8s2.6-5.8 5.8-5.8c3.2 0 5.8 2.6 5.8 5.8s-2.6 5.8-5.8 5.8zM50.5 54v38.2c0 4.7-3.9 8.6-8.6 8.6h-.3c-4.7 0-8.6-3.9-8.6-8.6V54c-1.2-.6-1.9-1.8-1.8-3v-4.8c0-1.9 1.5-3.4 3.4-3.4H49c1.9 0 3.4 1.5 3.4 3.4V51c0 1.2-.8 2.4-1.9 3zM36.8 74c1.3-.7 2-1.9 2.1-3.4.1-1.1 1-1.8 2-1.8 1.1.1 1.8 1 1.8 2-.1 1.5.3 6.1 2.4 8.3.4.4.8.7 1.3.9V54.3h-9.7V74zm11.7-27.5H34.9v3.9h13.5v-3.9zM24.4 54v38.2c0 4.7-3.9 8.6-8.6 8.6h-.3c-4.7 0-8.6-3.9-8.6-8.6V54C5.7 53.4 5 52.2 5 50.9V46c0-1.9 1.5-3.4 3.5-3.3H23c1.9 0 3.4 1.5 3.4 3.4V51c-.1 1.2-.9 2.4-2 3zM10.7 64c1.4-1 2.1-2.5 2.1-4.2.1-1.1 1-1.9 2-1.8 1.1.1 1.8 1 1.8 2-.1 2 .4 7.8 2.8 10.3.3.3.6.5.9.7V54.3h-9.7V64zm11.6-17.5H8.8v3.9h13.5v-3.9z"/></svg>