<svg xmlns="http://www.w3.org/2000/svg" viewBox="0 0 124 124"><path d="M105 115.6V25.5c0-3.9-2.1-7.5-5.5-9.5-3.4-1.9-7.6-1.9-10.9 0-3.4 2-5.5 5.6-5.5 9.5v73c0 6.8-2.7 13.2-7.5 18-4.8 4.8-11.3 7.5-18 7.5H46.8c-6.8 0-13.3-2.7-18-7.5-4.8-4.8-7.5-11.3-7.5-18v-7.7h14.6v7.7c0 2.9 1.2 5.7 3.2 7.7 2.1 2 4.8 3.2 7.7 3.2h10.8c2.9 0 5.7-1.2 7.7-3.2 2.1-2 3.2-4.8 3.2-7.7v-73c0-9.1 4.9-17.5 12.8-22.1 7.9-4.6 17.6-4.6 25.5 0 7.9 4.6 12.8 13 12.8 22.1v90.1H105zM49.9 24.4c-1.3.6-2.9.6-4.2-.1-2.6 3.4-4.3 7.4-5 11.6-.1 1-.2 1.9-.2 2.9h.7v12.6H16V38.8h.6c0-1-.1-1.9-.2-2.9-.7-4.2-2.4-8.2-5-11.6-.7.4-1.4.5-2.1.6-1.3 0-2.5-.5-3.4-1.4-.9-.9-1.4-2.1-1.4-3.4 0-1.3.5-2.5 1.4-3.4.9-.9 2.1-1.4 3.4-1.4 1.3 0 2.5.5 3.4 1.4.9.9 1.4 2.1 1.4 3.4 0 .7-.2 1.5-.5 2.1 3.1 4 5.1 8.7 5.8 13.7.1 1 .2 1.9.2 2.9h2.8c.1-1 .1-2 .1-2.9.1-5.5-.8-11.1-2.8-16.2-.3.1-.6.1-.9.1-1.5 0-2.9-.7-3.8-1.9-.9-1.2-1.2-2.7-.8-4.2.4-1.4 1.4-2.6 2.8-3.2 1.4-.6 2.9-.5 4.2.3 1.3.7 2.2 2 2.4 3.5.2 1.5-.3 3-1.3 4C24.5 24 25.6 30 25.4 36c0 1-.1 1.9-.1 2.9h1.8V15.4c-1.5-.5-2.6-1.6-3.1-3.1s-.2-3.1.7-4.3c.9-1.3 2.4-2 3.9-2s3 .7 3.9 2c.9 1.3 1.2 2.9.7 4.3-.5 1.5-1.6 2.6-3.1 3.1v23.5h1.8c-.1-1-.1-2-.1-2.9-.2-6 .9-12 3.1-17.6-.9-.9-1.4-2.1-1.4-3.4 0-1.3.5-2.5 1.4-3.4.9-.9 2.1-1.4 3.4-1.4 1.3 0 2.5.5 3.4 1.4.9.9 1.4 2.1 1.4 3.4 0 1.3-.5 2.5-1.4 3.4-.9.9-2.1 1.4-3.4 1.4-.3 0-.6 0-.9-.1-2 5.2-2.9 10.7-2.8 16.2 0 1 .1 1.9.1 2.9h2.9c0-1 .1-1.9.2-2.9.7-5 2.7-9.8 5.8-13.7-.3-.7-.5-1.4-.5-2.1 0-1.3.5-2.5 1.4-3.4.9-.9 2.1-1.4 3.4-1.4 1.5 0 2.9.7 3.8 1.8.9 1.2 1.2 2.7.9 4.1-.4 1.4-1.3 2.6-2.7 3.2zm-40-6c-.7-.3-1.5-.1-2.1.4-.5.5-.7 1.4-.4 2.1.3.7 1 1.2 1.8 1.2 1 0 1.9-.9 1.9-1.9 0-.9-.5-1.6-1.2-1.8zm9.6-5.2c-.7-.3-1.5-.1-2.1.4-.5.5-.7 1.4-.4 2.1.3.7 1 1.2 1.8 1.2 1 0 1.9-.9 1.9-1.9 0-.7-.4-1.5-1.2-1.8zm10.9-1.7c.3-.7.1-1.5-.4-2.1-.5-.5-1.4-.7-2.1-.4-.7.3-1.2 1-1.2 1.8 0 .5.2 1 .6 1.4.4.4.9.6 1.4.5.7 0 1.4-.5 1.7-1.2zm7.3 5.3c.7.3 1.5.1 2.1-.4.5-.5.7-1.4.4-2.1-.3-.7-1-1.2-1.8-1.2-1 0-1.9.9-1.9 1.9 0 .8.5 1.5 1.2 1.8zm12.1 2.6c-.3-.7-1-1.2-1.7-1.2-1 0-1.9.9-1.9 1.9 0 .8.5 1.5 1.2 1.7.7.3 1.5.1 2.1-.4.4-.5.6-1.3.3-2zM36.1 87.9h-15l-4.9-33.5h24.7l-4.8 33.5z"/></svg>