<svg xmlns="http://www.w3.org/2000/svg" viewBox="0 0 124 124"><path d="M118.6 81.9c-7.1 12.3-20.3 19.9-34.5 19.9h-4.4v17.7h4.4v4.4H39.8v-4.4h4.4v-17.7h-4.4c-14.2 0-27.4-7.6-34.5-19.9-7.1-12.3-7.1-27.5 0-39.9 7.1-12.3 20.3-19.9 34.5-19.9h4.4V4.4h-4.4V0h44.3v4.4h-4.4v17.7h4.4c14.2 0 27.4 7.6 34.5 19.9 7.2 12.4 7.2 27.6 0 39.9zm-3.8-37.6c-6.3-11-18-17.7-30.6-17.7h-8.9V4.4H48.7v22.1h-8.9c-12.6 0-24.3 6.8-30.6 17.7-6.3 11-6.3 24.4 0 35.4s18 17.7 30.6 17.7h8.9v22.1h26.6v-22h8.9c12.6 0 24.3-6.8 30.6-17.7 6.3-11 6.3-24.4 0-35.4zm-7.4 21.9c-.5 2.3-1.4 4.6-2.7 6.6l4.4 5.7c-1.3 1.8-2.8 3.4-4.7 4.7l-5.6-4.4c-2 1.3-4.2 2.2-6.6 2.7l-.9 7.1c-2.2.4-4.4.4-6.6 0l-.9-7.1c-2.3-.5-4.6-1.4-6.6-2.7l-5.7 4.4c-1.8-1.3-3.4-2.8-4.7-4.7l4.4-5.7c-1.3-2-2.2-4.2-2.7-6.6l-7.1-.9c-.4-2.2-.4-4.4 0-6.6l7.1-.9c.5-2.3 1.4-4.6 2.7-6.6l-4.4-5.7c1.3-1.8 2.8-3.4 4.7-4.7l5.7 4.4c2-1.3 4.2-2.2 6.6-2.7l.9-7.1c.9-.2 1.9-.3 2.8-.3 1.3 0 2.5.1 3.8.3l.9 7.1c2.3.5 4.6 1.4 6.6 2.7l5.6-4.4c1.8 1.3 3.4 2.8 4.7 4.7l-4.4 5.7c1.3 2 2.2 4.2 2.7 6.6l7.1.9c.4 2.2.4 4.4 0 6.6l-7.1.9zm-8.7-15.3c-3-2.9-7.1-4.5-11.2-4.4-4 .1-7.9 1.8-10.7 4.7C74 54.1 72.4 58 72.4 62c-.1 4.1 1.6 8.1 4.5 11.1 2.9 2.9 6.9 4.6 11 4.6s8.1-1.7 11-4.6c2.9-2.9 4.5-6.9 4.5-11.1 0-4.2-1.7-8.2-4.7-11.1zM87.9 69.4c-2 0-3.8-.8-5.2-2.2-1.4-1.4-2.2-3.3-2.2-5.2 0-1.9.7-3.8 2.1-5.1 1.3-1.4 3.2-2.2 5.1-2.2 2-.1 3.9.7 5.3 2.1 1.4 1.4 2.2 3.3 2.2 5.3s-.8 3.8-2.2 5.2c-1.3 1.3-3.2 2.1-5.1 2.1zm2-9.5c-.6-.6-1.3-.8-2.1-.8-1.6 0-2.8 1.3-2.8 2.9 0 1.6 1.3 2.9 2.9 2.9 1.6 0 2.9-1.3 2.9-2.9 0-.8-.3-1.5-.9-2.1zm-34.2 5.7l6.2 3.6c-.5 2.2-1.3 4.2-2.5 6.1l-6.9-1.9c-1.4 2-3.1 3.7-5 5l1.9 6.9c-1.9 1.2-3.9 2-6.1 2.5l-3.5-6.2c-2.4.4-4.8.4-7.1 0L29 87.8c-2.2-.5-4.2-1.3-6.1-2.5l1.9-6.9c-2-1.4-3.7-3.1-5-5l-6.9 1.9c-1.2-1.9-2-3.9-2.5-6.1l6.2-3.6c-.4-2.4-.4-4.8 0-7.1l-6.2-3.6c.5-2.2 1.3-4.2 2.5-6.1l6.9 1.9c1.4-2 3.1-3.7 5-5l-1.9-6.9c1.9-1.2 3.9-2 6.1-2.5l3.6 6.2c2.4-.4 4.8-.4 7.1 0l3.5-6.2c2.2.5 4.2 1.3 6.1 2.5l-1.9 6.9c2 1.4 3.7 3.1 5 5l6.9-1.9c1.2 1.9 2 3.9 2.5 6.1l-6.2 3.6c.5 2.3.5 4.7.1 7.1zm-8.8-14.7c-3-2.9-7.1-4.5-11.2-4.4-4 .1-7.9 1.8-10.7 4.7-2.8 2.9-4.4 6.8-4.4 10.8-.1 4.1 1.6 8.1 4.5 11.1 2.9 2.9 6.9 4.6 11 4.6s8.1-1.7 11-4.6c2.9-2.9 4.5-6.9 4.5-11.1 0-4.2-1.7-8.2-4.7-11.1zm-7.1 17.5c-2.3 1.3-5.1 1.3-7.4 0-2.3-1.3-3.7-3.7-3.7-6.4 0-1.9.7-3.8 2.1-5.1 1.3-1.4 3.1-2.2 5.1-2.2 2-.1 3.9.7 5.3 2.1 1.4 1.4 2.2 3.3 2.2 5.3 0 2.5-1.4 5-3.6 6.3zm-1.7-8.5c-.6-.6-1.3-.8-2.1-.8-1.6 0-2.8 1.3-2.8 2.9 0 .8.3 1.5.9 2.1s1.3.9 2.1.9 1.5-.3 2.1-.9c.5-.5.9-1.3.9-2.1-.2-.8-.5-1.5-1.1-2.1zm-2.2-5.3zm13.4-15.9z"/></svg>