<svg xmlns="http://www.w3.org/2000/svg" viewBox="0 0 124 124"><path d="M123.9 54.1l-5.4-18.6c-.6-2-2.9-3.3-4.9-2.7l-6.8 2c-2.3-3.8-5.1-7.3-8.4-10.5l3.4-6.2c.5-.9.6-2 .3-3s-1-1.9-1.9-2.4l-17-9.3c-.6-.3-1.2-.5-1.9-.5-1.5 0-2.8.8-3.5 2.1l-3.4 6.2C70 10.1 65.5 9.6 61 9.7l-2-6.8c-.6-2-2.9-3.3-4.9-2.7L35.5 5.6c-1 .3-1.9 1-2.4 1.9-.5.9-.6 2-.3 3l2 6.8c-3.8 2.3-7.3 5.1-10.5 8.4l-6.2-3.4c-.6-.3-1.2-.5-1.9-.5-1.5 0-2.8.8-3.5 2.1l-9.3 17c-1.1 1.9-.3 4.3 1.6 5.4l6.2 3.4C10.1 54 9.6 58.5 9.7 63l-6.8 2c-1 .3-1.9 1-2.4 1.9-.5.9-.6 2-.3 3l5.4 18.6c.6 2 2.9 3.3 4.9 2.7l6.8-2c2.3 3.8 5.1 7.3 8.4 10.5l-3.4 6.2c-1.1 1.9-.3 4.3 1.6 5.4l17 9.3c.6.3 1.2.5 1.9.5 1.5 0 2.8-.8 3.5-2.1l3.4-6.3c4.4 1.1 8.9 1.6 13.3 1.5l2 6.8c.5 1.7 2.1 2.9 3.8 2.9.4 0 .8-.1 1.1-.2l18.6-5.4c1-.3 1.9-1 2.4-1.9.5-.9.6-2 .3-3l-2-6.8c3.8-2.3 7.3-5.1 10.5-8.4l6.2 3.4c.6.3 1.2.5 1.9.5 1.5 0 2.8-.8 3.5-2.1l9.3-17c1.1-1.9.4-4.3-1.6-5.4l-6.3-3.4c1.1-4.4 1.6-8.8 1.5-13.3l6.8-2c1-.3 1.9-1 2.4-1.9.6-.8.8-1.9.5-2.9zm-3 1.6c-.1.2-.3.4-.6.5l-9.1 2.6V60c.2 5-.3 9.9-1.6 14.7l-.3 1.1 8.3 4.5c.5.3.7.9.4 1.4l-9.3 17c-.3.5-.9.7-1.4.4L99 94.6l-.8.9c-3.4 3.7-7.3 6.8-11.6 9.3l-1 .6 2.6 9.1c.1.3 0 .5-.1.8-.1.2-.3.4-.6.5L69.1 121c-.5.2-1.1-.2-1.3-.7l-2.6-9.1H64c-4.9.2-9.9-.3-14.7-1.6l-1.1-.3-4.5 8.3c-.3.5-.9.7-1.4.4l-17-9.3c-.5-.3-.7-.9-.4-1.4l4.5-8.3-.9-.8c-3.7-3.4-6.8-7.3-9.3-11.6l-.6-1-9.1 2.6c-.5.2-1.1-.2-1.3-.7L3 69.1c-.1-.3 0-.5.1-.8.1-.2.3-.4.6-.5l9.1-2.6V64c-.2-5 .3-9.9 1.6-14.7l.3-1.1-8.3-4.5c-.5-.3-.7-.9-.4-1.4l9.3-17c.3-.5.9-.7 1.4-.4l8.3 4.5.8-.9c3.4-3.7 7.3-6.8 11.6-9.3l1-.6-2.6-9.1c-.1-.3 0-.5.1-.8.1-.2.3-.4.6-.5L54.9 3c.5-.1 1.1.2 1.3.7l2.6 9.1H60c4.9-.2 9.9.3 14.7 1.6l1.1.3 4.5-8.3c.3-.5.9-.7 1.4-.4l17 9.3c.2.1.4.3.5.6.1.3 0 .5-.1.8L94.6 25l.9.8c3.7 3.4 6.8 7.3 9.3 11.6l.6 1 9.1-2.6c.5-.2 1.1.2 1.3.7l5.4 18.6c-.1.1-.1.3-.3.6z" fill="#fec156"/><path d="M76.2 36.1c-4.4-2.4-9.3-3.7-14.2-3.7-10.8 0-20.7 5.9-25.9 15.3-3.8 6.9-4.7 14.9-2.5 22.5S40.8 84 47.7 87.8c4.4 2.4 9.3 3.7 14.2 3.7 10.8 0 20.7-5.9 25.9-15.3 7.9-14.3 2.7-32.3-11.6-40.1zm9.1 38.7C80.6 83.3 71.7 88.6 62 88.6c-4.4 0-8.9-1.1-12.8-3.3-6.2-3.4-10.7-9.1-12.7-15.9-2-6.8-1.2-14 2.2-20.2 4.7-8.5 13.6-13.8 23.3-13.8 4.4 0 8.9 1.1 12.8 3.3 12.8 7.1 17.6 23.2 10.5 36.1z" fill="#fec156"/></svg>