<svg xmlns="http://www.w3.org/2000/svg" viewBox="0 0 124 124"><path d="M122.7 63.5s2.1-4.6 1-10.9c-1-5.9-4.7-9.9-4.7-9.9l-9.8 1.7c-1.8-4.5-4.1-8.6-7-12.3l6.4-7.6s-1.3-4.8-6.3-9c-4.6-3.8-9.9-4.6-9.9-4.6l-6.2 7.4c-4.2-2.3-8.7-4.1-13.5-5.2V3.4S68.6.5 62.1.5c-5.9 0-10.6 2.9-10.6 2.9v9.1c-4.9.9-9.6 2.6-14 4.9l-5.8-6.9s-5 .5-9.9 4.6c-4.6 3.8-6.3 9-6.3 9l5.6 6.7c-3.1 3.9-5.7 8.2-7.6 12.9L5 42.2S1.5 45.8.3 52.1c-1 5.9 1 10.9 1 10.9l8.6 1.5c.2 5.1 1 10.1 2.6 14.7l-7.7 4.4s-.4 5 2.8 10.6c3 5.1 7.8 7.7 7.8 7.7l7.8-4.5c3.3 3.6 7.1 6.8 11.3 9.4l-3.2 8.7s2.9 4.1 9 6.3c5.6 2 10.9.9 10.9.9l3.2-8.9c2.2.3 4.5.5 6.8.5 2.6 0 5.1-.3 7.6-.6l3.3 9.2s4.9 1.3 10.9-.9c5.6-2 9-6.3 9-6.3l-3.4-9.3c4-2.5 7.6-5.6 10.8-9.1l8.8 5.1s4.5-2.1 7.8-7.7c3-5.2 2.8-10.6 2.8-10.6l-8.7-5c1.4-4.4 2.3-9 2.5-13.8l10.1-1.8zm-61.4 44c-24.5 0-44.4-19.9-44.4-44.4s19.9-44.4 44.4-44.4 44.4 19.9 44.4 44.4-19.9 44.4-44.4 44.4z" fill="#fec156"/></svg>