<svg xmlns="http://www.w3.org/2000/svg" viewBox="0 0 124 124"><path d="M62.6 47c-7.9-7.9-11.8-11.9-13.5-13.5 3.1-9.1.9-19.2-6-26.1C36.3.6 26.5-1.7 17.4 1.3h-.2c-.2.1-.4.2-.6.4-.2.2-.3.4-.4.6v.1c-.1.3-.2.6-.2.8v.1c0 .2 0 .4.1.6v.2c.1.2.2.4.4.6l9.8 9.8c.9.9 1.5 2.2 1.5 3.5 0 1.3-.5 2.6-1.4 3.5l-4.9 4.9c-1.9 1.9-5.1 1.9-7 0l-9.8-9.8c-.2-.2-.4-.3-.6-.4h-.2c-.2-.2-.4-.2-.6-.2h-.1c-.2 0-.5.1-.7.1h-.1c-.2.1-.4.2-.6.4-.2.2-.3.4-.4.6v.2c-3 9.1-.6 18.9 6.1 25.7 4.8 4.8 11.3 7.4 17.9 7.4 2.7 0 5.5-.5 8.2-1.4L64 79.4l14 14.3 27.1 27.1c2.2 2.2 5 3.2 7.8 3.2s5.7-1.1 7.8-3.2c2.1-2.1 3.2-4.9 3.2-7.8 0-3-1.2-5.8-3.2-7.8-8.8-8.9-42-42.2-58.1-58.2zm55.2 70.8c-2.7 2.7-7.1 2.7-9.8 0L80.9 90.7 66.8 76.6 35.5 45.3c-.6-.6-1.5-.8-2.3-.5-7.9 3.2-16.9 1.4-22.9-4.6-4.8-4.8-6.9-11.5-5.9-18.1l7.2 7.2c1.8 1.8 4.1 2.7 6.4 2.7 2.3 0 4.6-.9 6.4-2.7l4.9-4.9c1.7-1.7 2.7-4 2.7-6.4 0-2.4-.9-4.7-2.7-6.4l-7.2-7.2c6.6-1 13.2 1.1 18.1 5.9C46.1 16.2 48 25 45 32.8L42.8 35c-.8.8-.8 2.1 0 2.9.4.4.9.6 1.5.6.5 0 1.1-.2 1.5-.6l1-1 13 13 58.1 58.1c1.3 1.3 2 3.1 2 4.9-.1 1.9-.8 3.6-2.1 4.9z" fill="#fec156"/></svg>