<svg xmlns="http://www.w3.org/2000/svg" viewBox="0 0 512 512"><path d="M485.6 221.4l25.1 33.1c2 2.6 1.5 6.3-1.1 8.3l-33.1 25.1c-2.6 2-6.3 1.5-8.3-1.1l-25.1-33.1c-2-2.6-1.5-6.3 1.1-8.3l33.1-25.1c2.6-2 6.3-1.5 8.3 1.1z" fill="#fec156"/><path d="M.1 419.3s43.4-33.5 138.1-74.9c0 0 22 94.1 103.4 94.1 0 0 58.6 6.6 96-70 0 0 22.2-12.5 31-16.7 10.3-4.9 20.5-17.1 25.4-28.5 4.9-11.4 1.9-18.6 1.9-18.6s-.2-4-6.2-3.7c-6.4.3-21.7 0-21.7 0s3.9-14 31-19.2c0 0 27.3-13.5 33.4-33.4 0 0-47.5 10.5-74.9 45.2l-34.7 49.5s-31.7 55.9-79.9 56.4c0 0-55.8-5.2-63.8-70.6 0 0 122.4-55.4 149.9-110.8 0 0 59.7-110.3-25.4-142.4 0 0-54.6-22.2-121.4 72.5 0 0-46.1 57.7-44.6 162.9 0-.2-134.6 48-137.5 108.2z" fill="#8399a6"/></svg>